<svg width="0" height="0" class="hidden">
  <symbol fill="none" xmlns="http://www.w3.org/2000/svg" role="presentation" viewBox="0 0 88 88" id="postnl">
    <path d="M29.9894 39.3958C26.5744 39.3958 23.8275 41.2897 23.8275 45.5547C23.8275 49.7243 26.5744 51.7137 29.9894 51.7137C33.3925 51.7137 36.1454 49.7243 36.1454 45.5547C36.1454 41.2897 33.3925 39.3958 29.9894 39.3958ZM29.9894 48.7848C28.4623 48.7848 27.32 47.6246 27.32 45.5547C27.32 43.3029 28.4623 42.3187 29.9894 42.3187C31.5075 42.3187 32.6528 43.3029 32.6528 45.5547C32.6528 47.6246 31.5075 48.7848 29.9894 48.7848ZM52.1825 39.5032C52.1825 39.5658 52.2332 39.6165 52.2959 39.6165H54.8877C55.0935 39.6165 55.2605 39.7865 55.2605 39.9863V42.2292C55.2605 42.2948 55.2098 42.3455 55.1472 42.3455H52.2959C52.2332 42.3455 52.1825 42.3962 52.1825 42.4589V46.8134C52.1825 48.4836 52.8148 48.9787 53.8707 48.9787C54.3658 48.9787 55.1442 48.6745 55.2575 48.6745C55.3202 48.6745 55.3739 48.7252 55.3739 48.7878V50.9353C55.3739 51.0963 55.2814 51.2097 55.18 51.2633C54.7088 51.5169 53.9184 51.6898 52.7492 51.6898C50.7062 51.6898 48.8093 50.6609 48.8093 47.3771V39.8044C48.8093 39.1333 49.0717 38.4951 49.4863 38.0417C50.0381 37.4333 51.8127 36.2939 52.0424 36.2939C52.1408 36.2939 52.1825 36.3238 52.1825 36.4162V39.5032ZM10.9757 39.9983C10.9757 39.7865 11.1457 39.6195 11.3574 39.6195H15.8492C20.2603 39.6195 22.545 42.268 22.545 45.6949C22.545 49.1249 19.9889 51.499 15.7776 51.499H14.4653C14.4026 51.499 14.3489 51.5497 14.3489 51.6153V57.1718C14.3489 57.2642 14.3102 57.2941 14.2088 57.2941C13.9791 57.2941 12.2045 56.1547 11.6527 55.5463C11.2381 55.0899 10.9757 54.4517 10.9757 53.7836V39.9983ZM19.2135 45.5219C19.2135 44.0635 18.271 42.6975 15.7806 42.6975H14.4593C14.3967 42.6975 14.346 42.7482 14.346 42.8138V48.2957C14.346 48.3583 14.3967 48.412 14.4593 48.412H15.8462C18.8138 48.412 19.2135 46.3511 19.2135 45.5219ZM47.0734 47.8364C47.0734 50.3387 45.275 51.7137 41.7675 51.7137C39.7602 51.7137 37.6396 51.0098 37.6217 51.0039C37.4637 50.9442 37.3593 50.801 37.3593 50.637V48.3047C37.3593 48.2271 37.4249 48.1675 37.5054 48.1675C37.5174 48.1675 37.5502 48.1734 37.5532 48.1764C38.3018 48.418 40.7296 49.0205 42.021 49.0205C42.7845 49.0205 43.1842 48.9071 43.4407 48.6506C43.6167 48.4747 43.6972 48.2868 43.6972 48.0601C43.6972 47.2966 42.7398 47.0848 41.8122 46.882C41.6959 46.8581 41.7466 46.8701 41.4334 46.7955C39.4023 46.3153 37.2609 45.8202 37.2609 43.2045C37.2609 42.0443 37.747 41.0809 38.6567 40.4128C39.5634 39.7447 40.8727 39.3958 42.4415 39.3958C43.8523 39.3958 45.5255 39.8611 46.0862 40.04C46.2622 40.0967 46.3636 40.2518 46.3636 40.4099V42.7362C46.3576 42.8436 46.2443 42.8943 46.1667 42.8645C44.5592 42.262 43.0888 42.0503 42.0329 42.0503C41.1948 42.0503 40.652 42.4141 40.652 42.9778C40.652 43.628 41.4454 43.804 42.4505 44.0307C42.5728 44.0575 43.1216 44.1828 43.2647 44.2126C44.0879 44.3945 44.9379 44.5795 45.6359 45.0358C46.6022 45.6681 47.0734 46.5837 47.0734 47.8364ZM65.258 51.4572C65.2193 51.4572 65.1864 51.4244 65.1864 51.3856V44.308C65.1864 42.7362 64.6526 42.0652 63.3999 42.0652C62.9525 42.0652 62.4127 42.2322 61.8758 42.5364C61.3419 42.8466 60.9244 43.1031 60.7753 43.1926C60.7335 43.2194 60.6888 43.291 60.6888 43.3477V51.3886C60.6888 51.4274 60.656 51.4602 60.6172 51.4602H57.4617C57.4229 51.4602 57.3871 51.4274 57.3871 51.3886V40.0012C57.3871 39.8163 57.5392 39.6642 57.7271 39.6642H60.6202C60.6589 39.6642 60.6947 39.697 60.6947 39.7358V40.6306C60.6947 40.6842 60.7395 40.729 60.7932 40.729C60.814 40.729 60.8409 40.7171 60.8498 40.7111L60.9453 40.6395C61.2972 40.3681 61.84 40.0609 62.2039 39.9207C62.9943 39.6195 63.8473 39.4435 64.5392 39.4435C67.1191 39.4435 68.4822 40.9258 68.4822 43.7264V51.3826C68.4822 51.4244 68.4494 51.4542 68.4076 51.4542H65.258V51.4572ZM71.0859 51.4572C71.0471 51.4572 71.0143 51.4244 71.0143 51.3856V33.9467C71.0143 33.884 71.0263 33.8661 71.1128 33.8661C71.3096 33.8661 73.0693 34.9727 73.639 35.599C74.0625 36.0643 74.3041 36.6966 74.3041 37.3348V51.3856C74.3041 51.4244 74.2713 51.4572 74.2325 51.4572H71.0859V51.4572ZM29.9864 21.1456C29.9268 21.1456 29.8701 21.1635 29.8015 21.2052C29.2706 21.6049 28.8024 22.0672 28.3967 22.5862C28.2774 22.7204 28.2774 22.8755 28.4027 23.0365C28.7874 23.5346 29.2289 23.979 29.712 24.3578C29.8015 24.4294 29.891 24.4622 29.9834 24.4622C30.0759 24.4622 30.1654 24.4264 30.2549 24.3548C30.738 23.976 31.1794 23.5316 31.5642 23.0365C31.6895 22.8755 31.6895 22.7204 31.5642 22.5772C31.1675 22.0642 30.6993 21.6019 30.1803 21.2112C30.1057 21.1635 30.0491 21.1456 29.9864 21.1456ZM29.9864 25.4196C29.7329 25.4196 29.4645 25.4255 29.1871 25.4375C29.0887 25.4375 28.9992 25.4733 28.9306 25.5448C28.8322 25.6433 28.7934 25.8013 28.7934 25.9057C28.8024 26.4515 28.8382 29.3327 28.862 31.1669C28.8739 32.0528 28.8799 32.694 28.8829 32.7149C28.8829 32.8461 28.9783 33.1205 29.2736 33.1205H30.7022C30.914 33.1205 31.0601 32.9714 31.09 32.7328C31.09 32.7268 31.09 32.7208 31.09 32.7149C31.09 32.6701 31.1198 30.2215 31.1765 25.9952V25.9117C31.1794 25.8312 31.1526 25.6582 31.0423 25.5478C30.9737 25.4762 30.8842 25.4434 30.7798 25.4434C30.5114 25.4285 30.2429 25.4196 29.9864 25.4196ZM33.6102 25.8103C33.2821 25.8103 33.0137 25.9922 32.8735 26.3054C32.4619 27.221 32.1637 28.0561 31.8744 29.0941C31.8416 29.2164 31.8535 29.3178 31.9102 29.3923C31.9489 29.443 32.0265 29.5027 32.1816 29.5027H33.2971C33.5506 29.5027 33.643 29.3685 33.6788 29.2581C33.8608 28.6377 33.992 28.2768 34.2246 27.7639C34.2276 27.7579 34.2455 27.7251 34.3141 27.7251C34.3409 27.7251 34.3678 27.7281 34.3946 27.737L34.9613 27.9249C35.0269 27.9488 35.0687 28.0054 35.0896 28.0502C35.1313 28.1367 35.1373 28.253 35.1075 28.3395C35.1015 28.3574 33.9622 31.5427 33.6222 32.6045C33.5715 32.7686 33.5774 32.8968 33.646 32.9923C33.7086 33.0788 33.816 33.1235 33.9651 33.1235H35.3461C35.5727 33.1235 35.7219 33.034 35.7875 32.8521C35.8382 32.7149 35.9098 32.515 35.9933 32.2794L36.0261 32.19C36.4407 31.0327 37.07 29.279 37.2042 28.7809C37.4309 27.9368 37.4935 27.0122 36.2557 26.5529C35.862 26.4068 35.4892 26.2815 35.1462 26.1771C34.7108 26.0429 34.2902 25.9445 33.9204 25.858L33.8757 25.8461C33.7743 25.8192 33.6908 25.8103 33.6102 25.8103ZM26.3626 25.8103C26.2821 25.8103 26.1986 25.8192 26.1181 25.8401L26.0614 25.852C25.6916 25.9385 25.274 26.037 24.8386 26.1712C24.4985 26.2756 24.1257 26.4008 23.729 26.547C22.4883 27.0063 22.5539 27.9309 22.7806 28.7749C22.9088 29.2551 23.4934 30.8985 23.9885 32.2735C24.075 32.5091 24.1436 32.7089 24.1943 32.8461C24.2599 33.028 24.4091 33.1175 24.6357 33.1175H26.0167C26.2016 33.1175 26.2911 33.0459 26.3358 32.9863C26.4044 32.8938 26.4104 32.7656 26.3597 32.6015C26.0226 31.5547 24.8833 28.3663 24.8714 28.3365C24.8415 28.25 24.8475 28.1367 24.8893 28.0472C24.9101 28.0025 24.9489 27.9458 25.0205 27.9219L25.5902 27.734C25.611 27.7281 25.6379 27.7251 25.6647 27.7251C25.7214 27.7251 25.7482 27.7489 25.7542 27.7639C25.9898 28.2888 26.124 28.6527 26.3 29.2581C26.3328 29.3714 26.4253 29.5027 26.6788 29.5027H27.7972C27.9195 29.5027 28.012 29.4669 28.0687 29.3923C28.1253 29.3178 28.1373 29.2193 28.1015 29.097C27.8092 28.0532 27.5109 27.218 27.1023 26.3054C27.0337 26.1563 26.8279 25.8103 26.3626 25.8103ZM35.0657 34.1793H24.9221C24.5671 34.1793 24.2659 34.4776 24.2659 34.8325V36.109C24.2659 36.5087 24.4359 36.7025 24.7908 36.7025H35.1999C35.5519 36.7025 35.7219 36.5087 35.7219 36.109V34.8325C35.7219 34.4776 35.4206 34.1793 35.0657 34.1793ZM83.9139 44.0486C83.9019 36.9262 70.5222 24.5904 56.2657 16.7314C39.8199 7.66149 21.1044 2.31676 14.9395 5.71388C7.9126 9.5912 4.06214 28.9449 4.05915 44.0486C4.06214 59.2745 7.68891 78.3807 14.9395 82.3803C21.51 86.0011 39.4113 80.6563 56.2657 71.3657C70.7459 63.3814 83.9019 51.5169 83.9139 44.0486ZM19.8756 1.22217C30.2549 1.22217 46.8826 7.78377 57.9389 13.8801C64.2648 17.3667 71.4438 22.4549 76.9973 27.6326C82.3271 32.5986 87.3557 38.7814 87.3647 44.0486C87.3557 49.0085 83.3293 54.8275 76.8482 60.7687C71.3454 65.8092 64.1992 70.7662 57.9418 74.217C47.2613 80.1046 30.9826 86.9823 20.2514 86.9823C17.3345 86.9823 14.9425 86.4783 13.135 85.4821C8.38384 82.8634 5.33866 75.8067 3.54019 68.8932C1.6075 61.4756 0.614311 52.5548 0.611328 44.0515C0.611328 35.7302 1.68504 26.7886 3.5551 19.5171C5.83377 10.6619 9.14738 4.81912 13.135 2.618C14.8082 1.69043 17.078 1.22217 19.8756 1.22217Z" fill="#F56900"></path>
  <symbol version="1.1" xmlns="http://www.w3.org/2000/svg" xmlns:xlink="http://www.w3.org/1999/xlink" preserveAspectRatio="xMidYMid" viewBox="0 -51.5 256 256" id="aws">
    <g>
      <path d="M72.392053,55.4384106 C72.392053,58.5748344 72.7311258,61.1178808 73.3245033,62.9827815 C74.002649,64.8476821 74.8503311,66.8821192 76.0370861,69.0860927 C76.4609272,69.7642384 76.6304636,70.4423841 76.6304636,71.0357616 C76.6304636,71.8834437 76.1218543,72.7311258 75.0198675,73.5788079 L69.6794702,77.1390728 C68.9165563,77.6476821 68.1536424,77.9019868 67.4754967,77.9019868 C66.6278146,77.9019868 65.7801325,77.4781457 64.9324503,76.7152318 C63.7456954,75.4437086 62.7284768,74.0874172 61.8807947,72.7311258 C61.0331126,71.2900662 60.1854305,69.6794702 59.2529801,67.7298013 C52.6410596,75.5284768 44.3337748,79.4278146 34.3311258,79.4278146 C27.210596,79.4278146 21.5311258,77.3933775 17.3774834,73.3245033 C13.2238411,69.2556291 11.1046358,63.8304636 11.1046358,57.0490066 C11.1046358,49.8437086 13.6476821,43.994702 18.818543,39.586755 C23.989404,35.1788079 30.8556291,32.9748344 39.586755,32.9748344 C42.4688742,32.9748344 45.4357616,33.2291391 48.5721854,33.6529801 C51.7086093,34.0768212 54.9298013,34.7549669 58.3205298,35.5178808 L58.3205298,29.3298013 C58.3205298,22.8874172 56.9642384,18.394702 54.3364238,15.7668874 C51.6238411,13.1390728 47.0463576,11.8675497 40.5192053,11.8675497 C37.5523179,11.8675497 34.5006623,12.2066225 31.3642384,12.9695364 C28.2278146,13.7324503 25.1761589,14.6649007 22.2092715,15.8516556 C20.8529801,16.4450331 19.8357616,16.784106 19.2423841,16.9536424 C18.6490066,17.1231788 18.2251656,17.207947 17.8860927,17.207947 C16.6993377,17.207947 16.1059603,16.3602649 16.1059603,14.5801325 L16.1059603,10.4264901 C16.1059603,9.07019868 16.2754967,8.05298013 16.6993377,7.45960265 C17.1231788,6.86622517 17.8860927,6.27284768 19.0728477,5.6794702 C22.0397351,4.15364238 25.6,2.88211921 29.7536424,1.86490066 C33.9072848,0.762913907 38.3152318,0.254304636 42.9774834,0.254304636 C53.0649007,0.254304636 60.4397351,2.54304636 65.186755,7.1205298 C69.8490066,11.6980132 72.2225166,18.6490066 72.2225166,27.9735099 L72.2225166,55.4384106 L72.392053,55.4384106 Z M37.9761589,68.3231788 C40.7735099,68.3231788 43.6556291,67.8145695 46.7072848,66.797351 C49.7589404,65.7801325 52.4715232,63.9152318 54.7602649,61.3721854 C56.1165563,59.7615894 57.1337748,57.981457 57.6423841,55.9470199 C58.1509934,53.9125828 58.4900662,51.4543046 58.4900662,48.5721854 L58.4900662,45.0119205 C56.0317881,44.418543 53.4039735,43.9099338 50.6913907,43.5708609 C47.9788079,43.2317881 45.3509934,43.0622517 42.7231788,43.0622517 C37.0437086,43.0622517 32.8900662,44.1642384 30.0927152,46.4529801 C27.2953642,48.7417219 25.9390728,51.9629139 25.9390728,56.2013245 C25.9390728,60.1854305 26.9562914,63.1523179 29.0754967,65.186755 C31.1099338,67.3059603 34.0768212,68.3231788 37.9761589,68.3231788 Z M106.045033,77.4781457 C104.519205,77.4781457 103.501987,77.2238411 102.823841,76.6304636 C102.145695,76.1218543 101.552318,74.9350993 101.043709,73.3245033 L81.1231788,7.7986755 C80.6145695,6.10331126 80.3602649,5.0013245 80.3602649,4.40794702 C80.3602649,3.05165563 81.0384106,2.28874172 82.394702,2.28874172 L90.7019868,2.28874172 C92.3125828,2.28874172 93.4145695,2.54304636 94.007947,3.13642384 C94.6860927,3.64503311 95.194702,4.83178808 95.7033113,6.44238411 L109.944371,62.5589404 L123.168212,6.44238411 C123.592053,4.74701987 124.100662,3.64503311 124.778808,3.13642384 C125.456954,2.62781457 126.643709,2.28874172 128.169536,2.28874172 L134.950993,2.28874172 C136.561589,2.28874172 137.663576,2.54304636 138.341722,3.13642384 C139.019868,3.64503311 139.613245,4.83178808 139.952318,6.44238411 L153.345695,63.2370861 L168.010596,6.44238411 C168.519205,4.74701987 169.112583,3.64503311 169.70596,3.13642384 C170.384106,2.62781457 171.486093,2.28874172 173.011921,2.28874172 L180.895364,2.28874172 C182.251656,2.28874172 183.01457,2.96688742 183.01457,4.40794702 C183.01457,4.83178808 182.929801,5.25562914 182.845033,5.76423841 C182.760265,6.27284768 182.590728,6.95099338 182.251656,7.88344371 L161.822517,73.4092715 C161.313907,75.1046358 160.72053,76.2066225 160.042384,76.7152318 C159.364238,77.2238411 158.262252,77.5629139 156.821192,77.5629139 L149.531126,77.5629139 C147.92053,77.5629139 146.818543,77.3086093 146.140397,76.7152318 C145.462252,76.1218543 144.868874,75.0198675 144.529801,73.3245033 L131.390728,18.6490066 L118.336424,73.2397351 C117.912583,74.9350993 117.403974,76.0370861 116.725828,76.6304636 C116.047682,77.2238411 114.860927,77.4781457 113.335099,77.4781457 L106.045033,77.4781457 Z M214.972185,79.7668874 C210.564238,79.7668874 206.156291,79.2582781 201.917881,78.2410596 C197.67947,77.2238411 194.37351,76.1218543 192.169536,74.8503311 C190.813245,74.0874172 189.880795,73.2397351 189.541722,72.4768212 C189.202649,71.7139073 189.033113,70.8662252 189.033113,70.1033113 L189.033113,65.7801325 C189.033113,64 189.711258,63.1523179 190.982781,63.1523179 C191.491391,63.1523179 192,63.2370861 192.508609,63.4066225 C193.017219,63.5761589 193.780132,63.9152318 194.627815,64.2543046 C197.509934,65.5258278 200.646358,66.5430464 203.952318,67.2211921 C207.343046,67.8993377 210.649007,68.2384106 214.039735,68.2384106 C219.380132,68.2384106 223.533775,67.3059603 226.415894,65.4410596 C229.298013,63.5761589 230.823841,60.8635762 230.823841,57.3880795 C230.823841,55.0145695 230.060927,53.0649007 228.535099,51.4543046 C227.009272,49.8437086 224.127152,48.402649 219.97351,47.0463576 L207.682119,43.2317881 C201.49404,41.2821192 196.916556,38.4 194.119205,34.5854305 C191.321854,30.8556291 189.880795,26.7019868 189.880795,22.2940397 C189.880795,18.7337748 190.643709,15.597351 192.169536,12.8847682 C193.695364,10.1721854 195.729801,7.7986755 198.272848,5.93377483 C200.815894,3.98410596 203.698013,2.54304636 207.088742,1.52582781 C210.47947,0.508609272 214.039735,0.0847682119 217.769536,0.0847682119 C219.634437,0.0847682119 221.584106,0.169536424 223.449007,0.42384106 C225.398675,0.678145695 227.178808,1.01721854 228.95894,1.35629139 C230.654305,1.78013245 232.264901,2.20397351 233.790728,2.71258278 C235.316556,3.22119205 236.503311,3.72980132 237.350993,4.2384106 C238.537748,4.91655629 239.38543,5.59470199 239.89404,6.35761589 C240.402649,7.03576159 240.656954,7.96821192 240.656954,9.15496689 L240.656954,13.1390728 C240.656954,14.9192053 239.978808,15.8516556 238.707285,15.8516556 C238.029139,15.8516556 236.927152,15.5125828 235.486093,14.8344371 C230.654305,12.6304636 225.229139,11.5284768 219.210596,11.5284768 C214.378808,11.5284768 210.564238,12.2913907 207.936424,13.9019868 C205.308609,15.5125828 203.952318,17.9708609 203.952318,21.4463576 C203.952318,23.8198675 204.8,25.8543046 206.495364,27.4649007 C208.190728,29.0754967 211.327152,30.6860927 215.819868,32.1271523 L227.856954,35.9417219 C233.960265,37.8913907 238.368212,40.6039735 240.996026,44.0794702 C243.623841,47.5549669 244.895364,51.5390728 244.895364,55.9470199 C244.895364,59.592053 244.13245,62.8980132 242.691391,65.7801325 C241.165563,68.6622517 239.131126,71.205298 236.503311,73.2397351 C233.875497,75.3589404 230.739073,76.8847682 227.09404,77.986755 C223.27947,79.1735099 219.295364,79.7668874 214.972185,79.7668874 Z" fill="#252F3E" fill-rule="nonzero"></path>
      <path d="M230.993377,120.964238 C203.104636,141.562914 162.58543,152.498013 127.745695,152.498013 C78.9192053,152.498013 34.9245033,134.442384 1.69536424,104.434437 C-0.932450331,102.060927 1.4410596,98.8397351 4.57748344,100.704636 C40.5192053,121.557616 84.8529801,134.188079 130.712583,134.188079 C161.65298,134.188079 195.645033,127.745695 226.924503,114.521854 C231.586755,112.402649 235.570861,117.57351 230.993377,120.964238 Z M242.606623,107.740397 C239.046358,103.162914 219.04106,105.536424 209.970861,106.638411 C207.258278,106.977483 206.834437,104.603974 209.292715,102.823841 C225.229139,91.6344371 251.422517,94.8556291 254.474172,98.5854305 C257.525828,102.4 253.62649,128.593377 238.707285,141.139073 C236.418543,143.088742 234.21457,142.071523 235.231788,139.528477 C238.622517,131.136424 246.166887,112.233113 242.606623,107.740397 Z" fill="#FF9900"></path>
    </g>
  </symbol>
  <symbol version="1.1" xmlns="http://www.w3.org/2000/svg" xmlns:xlink="http://www.w3.org/1999/xlink" preserveAspectRatio="xMidYMid" viewBox="0 -4 256 256" id="jfrog">
    <g>
      <path d="M113.668304,162.397095 L100.140911,166.161239 C101.317206,169.572494 102.258242,175.689228 102.258242,183.923293 L102.258242,224.387841 L117.432448,224.387841 L117.432448,181.570703 C120.255556,178.159448 123.313923,176.512635 126.607549,176.512635 C128.254362,176.512635 129.548287,176.865523 130.959841,177.68893 L135.076873,163.691019 C132.724283,162.632354 131.665618,162.397095 129.430657,162.397095 C127.783844,162.397095 125.784143,162.749983 124.490218,163.338131 C121.66711,164.749685 118.138225,167.925681 115.903265,170.984048 C115.903265,167.572793 115.079858,164.867314 113.668304,162.397095 Z M61.4408057,142.400079 L59.7939927,142.400079 L59.7939927,224.270212 L75.5563458,224.270212 L75.5563458,188.040326 L95.4357314,188.040326 L95.4357314,174.512933 L75.5563458,174.512933 L75.5563458,155.692213 L100.37617,155.692213 L101.317206,148.516813 C86.3782599,147.458148 72.8508673,145.105558 61.4408057,142.400079 Z M24.622772,235.209755 L31.915801,243.67908 C38.9735711,240.855972 47.7957836,234.503978 50.1483736,224.387841 C50.9717802,221.094215 51.2070392,218.976884 51.2070392,208.2726 L51.2070392,142.517709 L35.3270566,142.517709 L35.3270566,210.037042 C35.3270566,218.859255 34.974168,222.152881 33.797873,225.211248 C32.2686895,228.622503 28.622175,232.621906 24.622772,235.209755 Z M167.777874,193.686542 C167.777874,208.037341 164.954766,214.154075 158.485144,214.154075 C155.544406,214.154075 152.25078,212.507262 150.839226,209.213636 C149.662931,206.155269 148.957154,200.979571 148.957154,193.921801 C148.957154,187.922696 149.545302,183.688034 150.486338,180.394408 C151.662633,176.630264 154.60337,174.277674 158.249885,174.277674 C160.955363,174.277674 163.307953,175.453969 164.719507,177.453671 C166.836838,180.276779 167.777874,185.570106 167.777874,193.686542 Z M177.070605,217.212442 C182.011044,211.330967 184.246005,204.155567 184.246005,193.804171 C184.246005,184.040923 182.246303,177.336041 177.658752,171.689825 C172.718313,165.573091 166.36632,162.632354 158.132255,162.632354 C142.605161,162.632354 132.253765,175.21871 132.253765,194.274689 C132.253765,213.330668 142.487532,225.564136 158.132255,225.564136 C166.954468,225.681766 172.718313,222.38814 177.070605,217.212442 Z M220.123002,183.335146 C220.123002,188.863732 216.829376,191.922099 210.947901,191.922099 C205.654574,191.922099 202.125689,189.45188 202.125689,183.335146 C202.125689,177.68893 205.419315,174.395304 211.065531,174.395304 C216.711747,174.395304 220.123002,177.68893 220.123002,183.335146 Z M246.824899,170.395901 L240.590535,160.397393 C237.06165,163.691019 232.826988,165.573091 228.709956,165.573091 C226.827884,165.573091 225.769218,165.337832 221.652186,164.279167 C217.535153,163.102872 214.594416,162.749983 211.30079,162.749983 C196.597102,162.749983 187.069113,170.748789 187.069113,183.217516 C187.069113,192.157358 191.068516,197.803574 199.42021,200.038535 C196.008955,200.861941 192.36244,202.626384 190.715627,204.626085 C189.539332,206.037639 188.951185,207.919711 188.951185,210.154672 C188.951185,212.036744 189.421703,213.683557 190.12748,215.095111 C190.950886,216.389035 192.009552,217.447701 193.421106,218.035848 C196.126584,219.094514 200.478876,219.800291 207.183757,219.91792 C210.712642,219.91792 212.829973,220.03555 213.53575,220.03555 C217.652783,220.270809 219.770114,220.976586 221.416927,221.799992 C222.94611,222.741028 224.122405,224.858359 224.122405,227.210949 C224.122405,229.563539 222.710851,231.916129 220.475891,233.327683 C218.476189,234.739237 215.182563,235.327385 210.947901,235.327385 C204.007761,235.327385 200.125987,232.739536 200.125987,227.916726 C200.125987,225.799395 200.361246,225.328877 200.831764,224.034953 L186.951483,224.034953 C186.363336,225.211248 185.657559,226.858061 185.657559,230.151687 C185.657559,234.268719 187.186742,237.797605 190.362739,240.855972 C195.538437,245.91404 204.007761,247.325594 212.124196,247.325594 C221.064038,247.325594 229.768621,245.208263 234.82669,239.562047 C238.002686,236.033162 239.41424,232.151388 239.41424,227.09332 C239.41424,221.682363 237.885057,217.56533 234.473801,214.154075 C230.474398,210.272301 225.886848,208.860747 217.064635,208.743118 L208.9482,208.625488 C207.419016,208.625488 206.47798,208.037341 206.47798,207.213934 C206.47798,205.567121 208.595311,204.155567 212.477085,202.273495 C213.65338,202.391125 214.006268,202.391125 214.712045,202.391125 C226.945513,202.391125 235.885355,194.862837 235.885355,184.393811 C235.885355,180.394408 234.70906,177.336041 232.4741,174.512933 C234.356172,174.748192 234.944319,174.865822 236.355873,174.865822 C240.355276,174.865822 243.531273,173.571897 246.824899,170.395901 Z M57.4414027,71.2342314 C38.6206826,75.8217819 25.799067,84.8792535 25.799067,95.2306496 C25.799067,101.700272 30.739506,107.581747 38.8559416,112.169298 C36.3857221,108.287524 35.0917976,104.052862 35.0917976,99.8182001 C35.2094271,89.1139155 43.5611216,79.115408 57.4414027,71.2342314 Z M256,111.816409 C256,104.993898 251.765338,98.7595346 244.707568,93.5838366 C245.295715,95.7011676 245.766233,97.8184986 245.766233,99.9358296 C245.766233,119.344697 218.593819,136.048086 180.011343,142.988227 C184.363634,143.458745 188.833555,143.694004 193.538735,143.694004 C228.004179,143.576374 256,129.343205 256,111.816409 Z M233.768024,101.229754 C233.768024,94.0543546 227.65129,87.4671025 217.182265,82.0561455 C219.652484,84.996883 220.946409,88.1728795 220.946409,91.4665055 C220.946409,108.758042 184.246005,122.755953 138.841017,122.755953 C93.5536594,122.755953 56.7356257,108.758042 56.7356257,91.4665055 C56.7356257,89.231545 57.3237732,87.114214 58.5000682,85.1145125 C51.2070392,89.937322 47.0900066,95.4659086 47.0900066,101.347384 C47.0900066,120.050474 88.8484794,135.22468 140.370201,135.22468 C191.891922,135.22468 233.768024,119.815215 233.768024,101.229754 Z M193.068217,100.288718 C174.012238,112.522186 115.432747,117.227366 90.2600334,101.465013 C70.4982773,89.1139155 77.3207883,69.4697889 20.7409985,26.4173916 C13.3303399,20.7711756 22.1525525,14.772071 27.681139,18.6538446 C33.2097255,22.5356181 28.151657,23.4766541 39.3264596,34.6514567 C61.9113237,57.2363208 61.6760647,36.8864172 65.2049497,44.6499642 C72.7332378,60.7652058 89.2013679,76.998077 89.2013679,76.998077 C105.787128,87.819991 118.961632,90.172581 143.428568,73.5868214 C158.955662,63.1177959 152.603669,90.2902105 190.597998,70.6460839 C204.478279,63.4706844 203.890131,68.2934939 218.005671,48.6493673 C223.887146,40.5329317 235.061949,54.8837308 222.357963,56.8834323 C217.299894,57.7068388 208.712941,63.2354254 205.066426,71.9400084 C199.773099,84.996883 202.008059,94.6425021 193.068217,100.288718 Z M87.4369254,67.1171989 C82.7317454,64.9998679 77.7913063,57.0010618 75.9092343,53.8250653 C81.2025619,48.6493673 79.0852308,40.0624137 76.0268638,35.3572337 C73.0861263,30.6520536 69.4396118,31.9459782 65.5578383,27.5936866 C61.5584352,23.2413951 67.0870218,11.948963 72.1450903,20.6535461 C91.0834399,53.2369178 103.552167,39.7095252 118.961632,37.7098237 C133.782949,35.8277517 146.957453,43.9441872 150.956856,21.0064346 C151.662633,17.2422906 155.309147,16.4188841 155.662036,22.5356181 C156.014924,28.7699816 158.367514,43.8265577 166.48395,45.7086297 C174.600385,47.7083313 181.187638,43.8265577 183.06971,41.7092267 C184.951782,39.5918957 186.010447,39.8271547 186.833854,45.2381117 C187.65726,50.5314393 189.774591,57.9420978 201.184653,49.7080328 C224.592923,33.0046437 217.888042,26.5350211 227.063143,22.1827296 C232.238841,19.7125101 240.472906,27.7113161 228.592326,33.7104207 C211.653678,42.2973742 209.889236,52.8840293 199.184951,59.5889108 C181.187638,70.8813429 186.716224,60.0594288 157.779367,55.9423963 C146.604564,54.4132128 143.075679,66.7643104 134.371096,63.2354254 C114.491711,55.0013603 100.4938,56.6481733 87.4369254,67.1171989 Z M150.133449,6.77326499 C150.839226,11.713704 151.662633,11.5960745 153.427075,11.948963 C155.191518,12.419481 157.426478,9.59637301 157.426478,7.00852399 C157.544108,4.30304547 156.250183,2.65623246 153.662334,2.77386196 C150.956856,2.89149147 150.01582,4.18541597 150.133449,6.77326499 Z M237.17928,15.5954775 C239.296611,17.5951791 244.942827,16.3012546 246.236751,14.772071 C249.648007,11.007927 249.765636,8.7729665 248.001194,6.18511749 C246.236751,3.71489797 242.590237,4.06778647 238.943722,6.77326499 C235.297208,9.47874351 236.002985,14.536812 237.17928,15.5954775 Z M235.650096,40.5329317 C233.885654,42.8855217 233.768024,44.6499642 235.061949,45.9438887 C236.473503,47.3554428 239.296611,48.5317378 241.296312,47.0025543 C243.296014,45.3557412 243.296014,43.0031512 241.649201,41.0034497 C239.884758,38.8861187 237.532168,38.8861187 235.650096,40.5329317 Z M57.0885142,11.1255565 C59.7939927,11.948963 61.0879172,14.536812 63.3228777,11.5960745 C64.4991727,10.1845205 64.6168022,8.184819 63.0876187,6.06748799 C62.1465827,4.77356348 57.6766617,3.83252747 55.7945897,5.71459948 C53.9125177,7.5966715 55.6769602,10.6550385 57.0885142,11.1255565 Z M1.92027833,9.47874351 C6.86071737,12.5371105 10.0367139,17.1246611 13.8008579,13.0076285 C15.0947824,11.5960745 16.6239659,9.12585501 13.9184874,4.18541597 C11.9187859,0.53890145 5.44916336,-0.87265256 3.21420284,0.53890145 C0.861612826,1.83282596 -1.96149519,7.12615349 1.92027833,9.47874351 Z M47.4428951,32.8870142 C48.9720786,34.5338272 51.6775572,34.4161977 53.3243702,33.4751617 C54.8535537,32.5341257 54.6182947,30.0639061 53.0891112,27.9465751 C52.1480752,26.6526506 49.3249671,25.9468736 47.4428951,27.9465751 C45.5608231,29.9462766 46.3842296,31.7107192 47.4428951,32.8870142 Z" fill="#41BF47" fill-rule="nonzero"></path>
    </g>
  </symbol>
</svg>
